<?xml version="1.0" encoding="UTF-8" standalone="no"?>
<svg width="90px" height="90px" viewBox="0 0 90 90" version="1.1" xmlns="http://www.w3.org/2000/svg" xmlns:xlink="http://www.w3.org/1999/xlink" xmlns:sketch="http://www.bohemiancoding.com/sketch/ns">
    <title>5-5</title>
    <description>Created with Sketch (http://www.bohemiancoding.com/sketch)</description>
    <defs>
        <rect id="path-1" x="0.155354982" y="0" width="90" height="90" rx="8"></rect>
        <path id="path-2" d="M5.5,5 C6.88071194,5 8,4.10456955 8,3 C8,1.89543045 6.88071194,1 5.5,1 C4.11928806,1 3,1.89543045 3,3 C3,4.10456955 4.11928806,5 5.5,5 Z"></path>
        <path id="path-3" d="M5.5,5 C6.88071194,5 8,4.10456955 8,3 C8,1.89543045 6.88071194,1 5.5,1 C4.11928806,1 3,1.89543045 3,3 C3,4.10456955 4.11928806,5 5.5,5 Z"></path>
        <path id="path-4" d="M-4.84185776,24.5818134 C-4.8418579,21.3485599 -2.10780535,21.5327405 -4.841858,21.5124479 C-11.59613,21.462316 -9.80877734,23.1400158 -11.3337685,23.1400616 C-32.5936936,23.1406978 -29.8740542,67.4500263 -28.4064712,68.2312478 C-26.7259504,69.1258201 11.9711475,70.4247602 18.0921657,44.9876897 C19.8431957,37.7109467 18.0921657,33.4187161 18.0921657,32.5337083 C18.0921657,31.6487004 16.9090755,34.8674158 17.2095821,33.2240683 C19.6601245,19.8230588 15.6278408,17.9732474 16.7647579,17.9732472 C17.7118194,17.9732471 -4.84185753,27.815067 -4.84185776,24.5818134 Z"></path>
        <path id="path-5" d="M44.4923654,22.9250882 C35.489121,26.9200671 39.5759406,22.9250883 37.8203775,24.3596528 C27.8370297,32.517581 35.1932908,24.3535178 30.9454624,28.4826092 C15.3317089,43.6599202 20.3254714,64.1636925 21.7930545,64.9449141 C23.4735752,65.8394863 52.695398,69.8151304 62.430945,45.6420326 C69.6779766,27.6478483 77.5655673,22.190037 77.5655673,22.190037 C77.5655673,22.190037 53.4956099,18.9301096 44.4923654,22.9250882 Z"></path>
        <path id="path-6" d="M96.1617962,24.6864481 C96.161796,21.4531946 98.8958486,21.6373752 96.1617959,21.6170826 C89.407524,21.5669507 91.1948766,23.2446505 89.6698855,23.2446963 C78.8982637,23.2450186 69.5959016,40.0643318 70.2065498,49.7444843 C70.8171981,59.4246367 69.2169761,50.873067 68.7904469,52.9832579 C67.480783,59.4626278 71.9891698,68.012226 72.5971828,68.3358825 C74.2777035,69.2304548 112.974801,70.5293949 119.09582,45.0923244 C120.84685,37.8155815 119.09582,33.5233508 119.09582,32.638343 C119.09582,31.7533351 117.912729,34.9720505 118.213236,33.3287031 C120.663778,19.9276935 116.631495,18.0778821 117.768412,18.0778819 C118.715473,18.0778818 96.1617964,27.9197017 96.1617962,24.6864481 Z"></path>
    </defs>
    <g id="Page-1" stroke="none" stroke-width="1" fill="none" fill-rule="evenodd" sketch:type="MSPage">
        <g id="5-5" sketch:type="MSArtboardGroup">
            <g id="Rectangle-3">
                <use fill="none" sketch:type="MSShapeGroup" xlink:href="#path-1"></use>
                <use fill="none" xlink:href="#path-1"></use>
                <use fill="#FFFFFF" fill-rule="evenodd" xlink:href="#path-1"></use>
            </g>
            <g id="ant" sketch:type="MSLayerGroup" transform="translate(20.000000, 66.000000)">
                <g id="legs" stroke="#B34508" stroke-width="0.3" sketch:type="MSShapeGroup">
                    <path d="M14,5.34009811 C14.2390824,3.83560951 14.640523,1.67382749 15.227506,0.413480392 C16.1998594,-1.67431956 16.846547,4.706867 17.5421853,7.01228426 C18.3017865,9.52968047 19,8.93997869 19,8.93997869 M6,4.80003991 C5.64819482,3.85005285 5.52680889,3.24001978 5.08450064,1.95788676 C3.96111129,-1.29851826 2.90750861,4.51593777 2.06360375,7.9370466 C1.91113182,8.55515297 1.76550514,9.09513286 1.62754881,9.48937279 C0.643135497,12.3025456 0,11.9896379 0,11.9896379" id="Path-1"></path>
                    <path d="M8.40955917,4 C8.47655602,3.75981074 8.62888445,2.81944242 8.70009753,2.55788027 C9.01348675,1.40681681 9.31506025,2.20175582 9.59044083,3.44999583 M10.1049649,5 C10.3704993,7.19169135 10.8950351,9 10.8950351,9" id="Path-1" transform="translate(9.500000, 5.500000) scale(-1, 1) translate(-9.500000, -5.500000) "></path>
                    <path d="M17,5.48030323 C17.4025983,4.57591288 17.9877179,2.9268605 18.7631947,0.77523841 C20,-2.65637545 21.0843376,6.28630569 21.9249897,8.48994688 C22.8429384,10.8962089 23,9.70530981 23,9.70530981" id="Path-1"></path>
                </g>
                <g id="body" transform="translate(5.000000, 2.000000)">
                    <g id="Oval-1">
                        <use fill="#B34508" fill-rule="evenodd" sketch:type="MSShapeGroup" xlink:href="#path-2"></use>
                        <use fill="none" xlink:href="#path-2"></use>
                    </g>
                    <path d="M10,5 C11.6568543,5 13,3.88071194 13,2.5 C13,1.11928806 11.6568543,0 10,0 C8.34314567,0 7,1.11928806 7,2.5 C7,3.88071194 8.34314567,5 10,5 Z" id="Oval-1" fill="#B34508" sketch:type="MSShapeGroup"></path>
                    <path d="M2,5 C3.10456955,5 4,4.32842717 4,3.5 C4,2.67157283 3.10456955,2 2,2 C0.895430446,2 0,2.67157283 0,3.5 C0,4.32842717 0.895430446,5 2,5 Z" id="Oval-1" fill="#B34508" sketch:type="MSShapeGroup"></path>
                </g>
            </g>
            <g id="ant" sketch:type="MSLayerGroup" transform="translate(79.500000, 75.000000) rotate(5.000000) translate(-79.500000, -75.000000) translate(69.000000, 69.000000)">
                <g id="legs" transform="translate(0.000000, 0.000000)" stroke="#B34508" stroke-width="0.3" sketch:type="MSShapeGroup">
                    <path d="M13,5.34009811 C13.2390824,3.83560951 13.640523,1.67382749 14.227506,0.413480392 C15.1998594,-1.67431956 15.846547,4.706867 16.5421853,7.01228426 C17.3017865,9.52968047 18,8.93997869 18,8.93997869 M5.98162718,4.60923092 C5.629822,3.65924386 5.50843607,3.04921079 5.06612782,1.76707777 C3.94273847,-1.48932725 2.88913579,4.32512878 2.04523093,7.74623761 C1.892759,8.36434397 1.74713232,8.90432387 1.609176,9.2985638 C0.62476268,12.1117366 -0.0183728166,11.7988289 -0.0183728166,11.7988289" id="Path-1"></path>
                    <path d="M7.40955917,4 C7.47655602,3.75981074 7.62888445,2.81944242 7.70009753,2.55788027 C8.01348675,1.40681681 8.31506025,2.20175582 8.59044083,3.44999583 M9.10496487,5 C9.3704993,7.19169135 9.89503513,9 9.89503513,9" id="Path-1" transform="translate(8.500000, 5.500000) scale(-1, 1) translate(-8.500000, -5.500000) "></path>
                    <path d="M16,4.93227291 C16.3354986,4.11832159 16.8230983,2.63417445 17.4693289,0.697714569 C18.5,-2.39073791 19.4036147,5.65767512 20.1041581,7.64095219 C20.8691153,9.80658801 21,8.73477883 21,8.73477883" id="Path-1"></path>
                </g>
                <g id="body" transform="translate(4.000000, 2.000000)">
                    <g id="Oval-1">
                        <use fill="#B34508" fill-rule="evenodd" sketch:type="MSShapeGroup" xlink:href="#path-3"></use>
                        <use fill="none" xlink:href="#path-3"></use>
                    </g>
                    <path d="M10,5 C11.6568543,5 13,3.88071194 13,2.5 C13,1.11928806 11.6568543,1.42108547e-14 10,1.42108547e-14 C8.34314567,1.42108547e-14 7,1.11928806 7,2.5 C7,3.88071194 8.34314567,5 10,5 Z" id="Oval-1" fill="#B34508" sketch:type="MSShapeGroup"></path>
                    <path d="M2,5 C3.10456955,5 4,4.32842717 4,3.5 C4,2.67157283 3.10456955,2 2,2 C0.895430446,2 -9.9475983e-14,2.67157283 -9.9475983e-14,3.5 C-9.9475983e-14,4.32842717 0.895430446,5 2,5 Z" id="Oval-1" fill="#B34508" sketch:type="MSShapeGroup"></path>
                </g>
            </g>
            <g id="Path-7">
                <use fill="#3369E8" fill-rule="evenodd" sketch:type="MSShapeGroup" transform="translate(-5.355196, 43.595359) scale(-1, -1) rotate(-184.000000) translate(5.355196, -43.595359) " xlink:href="#path-4"></use>
                <use fill="none" xlink:href="#path-4"></use>
            </g>
            <g id="Path-7">
                <use fill="#009939" fill-rule="evenodd" sketch:type="MSShapeGroup" transform="translate(48.844330, 43.309026) scale(-1, -1) rotate(-184.000000) translate(-48.844330, -43.309026) " xlink:href="#path-5"></use>
                <use fill="none" xlink:href="#path-5"></use>
            </g>
            <path d="M57.5595703,77.161404 C41.8095707,78.3228079 36.6890943,73.3405099 36.5820312,73.9990234 C36.2567062,76 22.1005859,73.9990234 22.1005859,73.9990234 L0,76 L0,80 C0,80 22.5795505,78.1716443 32.7960907,78.9170389 C35.3094595,79.1004132 37.0746089,79.439553 37.5712891,80 C38.3425741,80.8703071 51.2950814,81.9453252 58.2969551,80.9726625 C65.2988281,79.9999999 90,80.9726623 90,80.9726623 L90,77.161404 C90,77.161404 73.3095703,76.0000001 57.5595703,77.161404 Z" id="Rectangle-7" fill="#383838" sketch:type="MSShapeGroup"></path>
            <g id="Path-7">
                <use fill="#EEB211" fill-rule="evenodd" sketch:type="MSShapeGroup" transform="translate(94.148458, 43.699994) scale(-1, -1) rotate(-184.000000) translate(-94.148458, -43.699994) " xlink:href="#path-6"></use>
                <use fill="none" xlink:href="#path-6"></use>
            </g>
            <rect id="Rectangle-3" stroke="#383838" sketch:type="MSShapeGroup" x="0.155354982" y="0" width="90" height="90" rx="8"></rect>
        </g>
    </g>
</svg>